<svg width="16" height="17" viewBox="0 0 16 17" fill="none" xmlns="http://www.w3.org/2000/svg">
<path d="M3.27472 9.95393H9.62981V8.34104H3.27472V9.95393ZM3.27472 7.5346H12.8074V5.92171H3.27472V7.5346ZM3.27472 5.11527H12.8074V3.50238H3.27472V5.11527ZM0.097168 16.4055V1.8895C0.097168 1.44595 0.252735 1.06625 0.56387 0.750397C0.875005 0.43454 1.24903 0.276611 1.68594 0.276611H14.3961C14.833 0.276611 15.2071 0.43454 15.5182 0.750397C15.8293 1.06625 15.9849 1.44595 15.9849 1.8895V11.5668C15.9849 12.0104 15.8293 12.3901 15.5182 12.7059C15.2071 13.0218 14.833 13.1797 14.3961 13.1797H3.27472L0.097168 16.4055ZM2.59949 11.5668H14.3961V1.8895H1.68594V12.4741L2.59949 11.5668Z" fill="white"/>
</svg>
