<svg width="34" height="25" viewBox="0 0 34 25" fill="none" xmlns="http://www.w3.org/2000/svg">
<path d="M8 4.91667L8 6.41708e-09L34 6.41698e-09L34 4.91667L8 4.91667ZM8 14.75L8 9.83333L34 9.83333L34 14.75L8 14.75ZM8 24.5833L8 19.6667L34 19.6667L34 24.5833L8 24.5833ZM2.50429 4.91667C1.79474 4.91667 1.19997 4.68108 0.719983 4.2099C0.239994 3.73872 2.57794e-09 3.15486 2.00878e-09 2.45833C1.43963e-09 1.76181 0.239994 1.17795 0.719983 0.706771C1.19997 0.23559 1.79474 5.8484e-09 2.50429 6.41755e-09C3.21384 6.98671e-09 3.80861 0.23559 4.2886 0.706771C4.76858 1.17795 5.00858 1.76181 5.00858 2.45833C5.00858 3.15486 4.76858 3.73872 4.2886 4.2099C3.80861 4.68108 3.21384 4.91667 2.50429 4.91667ZM2.50429 14.75C1.79474 14.75 1.19997 14.5144 0.719983 14.0432C0.239994 13.572 1.06131e-08 12.9882 1.00439e-08 12.2917C9.47475e-09 11.5951 0.239994 11.0113 0.719983 10.5401C1.19997 10.0689 1.79474 9.83333 2.50429 9.83333C3.21384 9.83333 3.80861 10.0689 4.2886 10.5401C4.76858 11.0113 5.00858 11.5951 5.00858 12.2917C5.00858 12.9882 4.76858 13.572 4.2886 14.0432C3.80861 14.5144 3.21384 14.75 2.50429 14.75ZM2.50429 24.5833C1.79474 24.5833 1.19997 24.3477 0.719983 23.8766C0.239994 23.4054 1.86482e-08 22.8215 1.8079e-08 22.125C1.75099e-08 21.4285 0.239994 20.8446 0.719983 20.3734C1.19997 19.9023 1.79474 19.6667 2.50429 19.6667C3.21384 19.6667 3.80861 19.9023 4.2886 20.3734C4.76858 20.8446 5.00858 21.4285 5.00858 22.125C5.00858 22.8215 4.76858 23.4054 4.2886 23.8766C3.80861 24.3477 3.21384 24.5833 2.50429 24.5833Z" fill="white"/>
</svg>
