<svg width="141" height="56" viewBox="0 0 141 56" fill="none" xmlns="http://www.w3.org/2000/svg">
<g clip-path="url(#clip0_13_378)">
<path d="M134.996 22.0606H109.378H97.7074C97.8255 21.5515 97.8929 20.9915 97.8929 20.3636C97.8929 10.2921 85.2441 0 70.9089 0C57.4169 0 45.6114 11.1406 45.6114 21.2121C45.6114 21.5091 45.6282 21.7891 45.6535 22.0606H25.5336H5.98701C-2.84183 22.0606 0.71669 27.7624 0.71669 38.8945C0.71669 50.0267 5.59068 55.737 14.4111 55.737H109.117L118.139 56C126.968 56 140.317 50.0606 140.317 38.8945C140.317 27.7285 143.825 22.0606 135.004 22.0606H134.996ZM24.7662 38.3939H23.0207V48.1091C18.3238 48.1091 16.0554 46.6242 16.0554 41.9321V32.3358L23.0207 27.6097V32.3358H24.7662V38.3939ZM30.846 47.9564C27.8609 47.9564 26.2082 46.0812 26.2082 42.7891C26.2082 40.1418 27.8609 38.1564 30.222 37.7067L33.3842 47.5067C32.8783 47.7697 31.8748 47.9479 30.846 47.9479V47.9564ZM34.7756 47.8121L29.8173 32.3358H37.2885L42.1287 47.8121H34.7756ZM49.7939 32.217L54.8703 31.5042L54.4571 37.8933L49.7939 36.0182V32.217ZM48.8494 47.8121H43.2671V42.6703L48.8494 45.2242V47.8121ZM50.6793 47.8121H50.089V44.3079L47.0196 43.2048C44.3634 42.2291 43.2081 40.9479 43.2081 37.9188C43.2081 34.2364 45.215 32.2424 47.9303 32.2424H48.5796V36.8158L52.1213 38.2158C54.4233 39.1067 55.4858 40.4133 55.4858 42.4327C55.4858 45.6655 53.9258 47.8121 50.6709 47.8121H50.6793ZM63.7834 47.8121H57.0543V28.8655L63.7834 27.8558V47.8121ZM65.9674 47.8121L64.9893 44.4521V39.76L66.1698 32.3358H73.3122L70.5379 40.4133L74.0795 47.8121H65.959H65.9674ZM81.3736 48.0242C77.4188 48.0242 74.9396 45.8861 74.9396 40.2436C74.9396 34.2448 77.8657 32.1321 81.3736 32.1321H82.0229V36.5612C80.0244 36.9006 78.5066 38.6315 78.5066 40.7358C78.5066 42.84 80.0329 44.5709 82.0229 44.9103V48.0242H81.3736ZM83.8865 48.0242H83.2372V44.9273C85.32 44.6727 86.9391 42.8994 86.9391 40.7358C86.9391 38.5721 85.32 36.8073 83.2372 36.5442V32.1321H83.8865C87.3691 32.1321 90.3205 34.2448 90.3205 40.2436C90.3205 45.8861 87.8076 48.0242 83.8865 48.0242ZM98.7868 47.8121H92.0576V28.8655L98.7868 27.8558V47.8121ZM100.971 47.8121L99.9926 44.4521V39.76L101.173 32.3358H108.315L105.541 40.4133L109.083 47.8121H100.962H100.971ZM116.377 48.0242C112.422 48.0242 109.943 45.8861 109.943 40.2436C109.943 34.2448 112.869 32.1321 116.377 32.1321H117.026V36.6545C115.239 37.1467 113.923 38.7758 113.923 40.7273C113.923 42.6788 115.247 44.3079 117.026 44.8V48.0158H116.377V48.0242ZM118.89 48.0242H118.241V44.9697C120.517 44.9188 122.356 43.0436 122.356 40.7358C122.356 38.4279 120.517 36.5612 118.241 36.5018V32.1321H118.89C122.372 32.1321 125.324 34.2448 125.324 40.2436C125.324 45.8861 122.811 48.0242 118.89 48.0242Z" fill="#FC9744"/>
</g>
<defs>
<clipPath id="clip0_13_378">
<rect width="141" height="56" fill="white"/>
</clipPath>
</defs>
</svg>
