<svg width="26" height="31" viewBox="0 0 26 31" fill="none" xmlns="http://www.w3.org/2000/svg">
<path d="M0.190186 26.2916V23.2083H3.35685V12.4166C3.35685 10.2839 4.01657 8.38898 5.33602 6.73169C6.65546 5.0744 8.37074 3.98881 10.4819 3.47492V2.39575C10.4819 1.75339 10.7128 1.20738 11.1746 0.757731C11.6364 0.308078 12.1971 0.083252 12.8569 0.083252C13.5166 0.083252 14.0773 0.308078 14.5391 0.757731C15.0009 1.20738 15.2319 1.75339 15.2319 2.39575V3.47492C17.343 3.98881 19.0582 5.0744 20.3777 6.73169C21.6971 8.38898 22.3569 10.2839 22.3569 12.4166V23.2083H25.5235V26.2916H0.190186ZM12.8569 30.9166C11.986 30.9166 11.2405 30.6147 10.6204 30.0109C10.0003 29.407 9.69019 28.6812 9.69019 27.8332H16.0235C16.0235 28.6812 15.7134 29.407 15.0933 30.0109C14.4732 30.6147 13.7277 30.9166 12.8569 30.9166ZM6.52352 23.2083H19.1902V12.4166C19.1902 10.7208 18.57 9.26902 17.3298 8.06138C16.0895 6.85374 14.5985 6.24992 12.8569 6.24992C11.1152 6.24992 9.62421 6.85374 8.38394 8.06138C7.14366 9.26902 6.52352 10.7208 6.52352 12.4166V23.2083Z" fill="white"/>
</svg>
