<svg width="24" height="24" viewBox="0 0 24 24" fill="none" xmlns="http://www.w3.org/2000/svg">
<path d="M21.9008 23.4109L13.7497 15.2597L13.7418 15.2518L13.733 15.2588C13.0866 15.7759 12.343 16.1855 11.5023 16.4872C10.6619 16.7889 9.76744 16.9398 8.81894 16.9398C6.46917 16.9398 4.48094 16.1262 2.8535 14.4987C1.22606 12.8713 0.412402 10.8831 0.412402 8.5333C0.412402 6.18352 1.22606 4.1953 2.8535 2.56786C4.48094 0.940415 6.46917 0.126758 8.81894 0.126758C11.1687 0.126758 13.1569 0.940415 14.7844 2.56786C16.4118 4.1953 17.2255 6.18352 17.2255 8.5333C17.2255 9.48179 17.0746 10.3762 16.7729 11.2167C16.4711 12.0574 16.0616 12.8009 15.5444 13.4474L15.5374 13.4561L15.5453 13.464L23.6965 21.6152L21.9008 23.4109ZM8.81894 14.3744C10.4413 14.3744 11.8206 13.8064 12.9564 12.6707C14.0921 11.535 14.66 10.1556 14.66 8.5333C14.66 6.91098 14.0921 5.5316 12.9564 4.39589C11.8206 3.26019 10.4413 2.69223 8.81894 2.69223C7.19662 2.69223 5.81724 3.26019 4.68154 4.39589C3.54583 5.5316 2.97788 6.91098 2.97788 8.5333C2.97788 10.1556 3.54583 11.535 4.68154 12.6707C5.81724 13.8064 7.19662 14.3744 8.81894 14.3744Z" fill="white" stroke="#3361FF" stroke-width="0.025"/>
</svg>
