<svg width="31" height="30" viewBox="0 0 31 30" fill="none" xmlns="http://www.w3.org/2000/svg">
<path d="M0.0744558 3.33333C0.0744559 2.41667 0.405716 1.63194 1.06824 0.979165C1.73076 0.326388 2.52719 -1.2237e-06 3.45754 -1.18303e-06L27.1391 -1.47879e-07C28.0695 -1.07213e-07 28.8659 0.326389 29.5284 0.979167C30.191 1.63194 30.5222 2.41667 30.5222 3.33333L30.5222 26.6667C30.5222 27.5833 30.191 28.3681 29.5284 29.0208C28.8659 29.6736 28.0695 30 27.1391 30L3.45754 30C2.52719 30 1.73076 29.6736 1.06824 29.0208C0.405715 28.3681 0.0744548 27.5833 0.0744548 26.6667L0.0744558 3.33333ZM3.45754 3.33333L3.45754 13.3333L27.1391 13.3333L27.1391 3.33333L3.45754 3.33333ZM3.45754 16.6667L3.45754 26.6667L15.2983 26.6667L15.2983 16.6667L3.45754 16.6667ZM18.6814 16.6667L18.6814 26.6667L27.1391 26.6667L27.1391 16.6667L18.6814 16.6667Z" fill="white"/>
</svg>
