<svg width="19" height="18" viewBox="0 0 19 18" fill="none" xmlns="http://www.w3.org/2000/svg">
<path d="M6.73511 1.70573V0.00756836H12.8284V1.70573H6.73511ZM8.76619 11.0456H10.7973V5.95113H8.76619V11.0456ZM9.78174 17.8383C8.52923 17.8383 7.34866 17.6366 6.24003 17.2333C5.13139 16.83 4.1624 16.2816 3.33304 15.5882C2.50368 14.8948 1.8478 14.0846 1.36542 13.1577C0.883037 12.2308 0.641846 11.2437 0.641846 10.1965C0.641846 9.14933 0.883037 8.16228 1.36542 7.23537C1.8478 6.30845 2.50368 5.49829 3.33304 4.80487C4.1624 4.11146 5.13139 3.56309 6.24003 3.15978C7.34866 2.75647 8.52923 2.55481 9.78174 2.55481C10.8311 2.55481 11.8382 2.69632 12.803 2.97935C13.7677 3.26238 14.6733 3.67277 15.5196 4.21052L16.9413 3.0218L18.3631 4.21052L16.9413 5.39923C17.5845 6.1068 18.0753 6.86389 18.4139 7.67052C18.7524 8.47715 18.9216 9.31915 18.9216 10.1965C18.9216 11.2437 18.6804 12.2308 18.1981 13.1577C17.7157 14.0846 17.0598 14.8948 16.2304 15.5882C15.4011 16.2816 14.4321 16.83 13.3234 17.2333C12.2148 17.6366 11.0342 17.8383 9.78174 17.8383ZM9.78174 16.1401C11.7451 16.1401 13.4208 15.5599 14.8087 14.3995C16.1966 13.2391 16.8905 11.8381 16.8905 10.1965C16.8905 8.55498 16.1966 7.154 14.8087 5.99359C13.4208 4.83318 11.7451 4.25297 9.78174 4.25297C7.81835 4.25297 6.14271 4.83318 4.7548 5.99359C3.36689 7.154 2.67293 8.55498 2.67293 10.1965C2.67293 11.8381 3.36689 13.2391 4.7548 14.3995C6.14271 15.5599 7.81835 16.1401 9.78174 16.1401Z" fill="white"/>
</svg>
