<svg width="13" height="18" viewBox="0 0 13 18" fill="none" xmlns="http://www.w3.org/2000/svg">
<path d="M12.6952 12.4335C12.6952 13.909 12.096 15.1646 10.8975 16.2003C9.69909 17.236 8.24616 17.7538 6.53877 17.7538C4.83139 17.7538 3.37846 17.236 2.18001 16.2003C0.981552 15.1646 0.382324 13.909 0.382324 12.4335V4.55939C0.382324 3.49533 0.813276 2.59087 1.67518 1.84603C2.53708 1.10118 3.58368 0.72876 4.81497 0.72876C6.04626 0.72876 7.09285 1.10118 7.95476 1.84603C8.81666 2.59087 9.24761 3.49533 9.24761 4.55939V12.0078C9.24761 12.6605 8.98494 13.2138 8.45959 13.6678C7.93424 14.1218 7.29397 14.3488 6.53877 14.3488C5.78358 14.3488 5.14331 14.1218 4.61796 13.6678C4.09261 13.2138 3.82994 12.6605 3.82994 12.0078V4.13377H5.8V12.0078C5.8 12.1923 5.86977 12.3448 6.00932 12.4654C6.14887 12.586 6.32535 12.6463 6.53877 12.6463C6.7522 12.6463 6.92868 12.586 7.06823 12.4654C7.20778 12.3448 7.27755 12.1923 7.27755 12.0078V4.55939C7.26113 3.96352 7.01898 3.45986 6.55109 3.04842C6.0832 2.63698 5.50449 2.43126 4.81497 2.43126C4.12545 2.43126 3.54264 2.63698 3.06654 3.04842C2.59044 3.45986 2.35239 3.96352 2.35239 4.55939V12.4335C2.33597 13.4408 2.73819 14.2956 3.55905 14.9979C4.37991 15.7002 5.37315 16.0513 6.53877 16.0513C7.68798 16.0513 8.6648 15.7002 9.46924 14.9979C10.2737 14.2956 10.6923 13.4408 10.7252 12.4335V4.13377H12.6952V12.4335Z" fill="white"/>
</svg>
