<svg width="31" height="31" viewBox="0 0 31 31" fill="none" xmlns="http://www.w3.org/2000/svg">
<path d="M19.4733 24.7613C18.3041 24.7613 17.3158 24.3897 16.5085 23.6463C15.7011 22.903 15.2975 21.993 15.2975 20.9165C15.2975 19.8399 15.7011 18.93 16.5085 18.1866C17.3158 17.4433 18.3041 17.0716 19.4733 17.0716C20.6425 17.0716 21.6308 17.4433 22.4381 18.1866C23.2454 18.93 23.6491 19.8399 23.6491 20.9165C23.6491 21.993 23.2454 22.903 22.4381 23.6463C21.6308 24.3897 20.6425 24.7613 19.4733 24.7613ZM3.60528 30.9131C2.68661 30.9131 1.90017 30.6119 1.24596 30.0095C0.591752 29.4072 0.264648 28.6831 0.264648 27.8372V6.30605C0.264648 5.46019 0.591752 4.73607 1.24596 4.13371C1.90017 3.53135 2.68661 3.23017 3.60528 3.23017H5.2756V0.154297H8.61623V3.23017H21.9788V0.154297H25.3194V3.23017H26.9897C27.9084 3.23017 28.6948 3.53135 29.349 4.13371C30.0032 4.73607 30.3303 5.46019 30.3303 6.30605V27.8372C30.3303 28.6831 30.0032 29.4072 29.349 30.0095C28.6948 30.6119 27.9084 30.9131 26.9897 30.9131H3.60528ZM3.60528 27.8372H26.9897V12.4578H3.60528V27.8372ZM3.60528 9.38193H26.9897V6.30605H3.60528V9.38193Z" fill="white"/>
</svg>
