<svg width="20" height="6" viewBox="0 0 20 6" fill="none" xmlns="http://www.w3.org/2000/svg">
<path d="M3.18421 0.826515C2.5612 0.826515 2.02786 1.03182 1.5842 1.44244C1.14053 1.85305 0.918701 2.34666 0.918701 2.92327C0.918701 3.49987 1.14053 3.99348 1.5842 4.4041C2.02786 4.81471 2.5612 5.02002 3.18421 5.02002C3.80723 5.02002 4.34057 4.81471 4.78423 4.4041C5.22789 3.99348 5.44973 3.49987 5.44973 2.92327C5.44973 2.34666 5.22789 1.85305 4.78423 1.44244C4.34057 1.03182 3.80723 0.826515 3.18421 0.826515ZM9.98075 0.826515C9.35773 0.826515 8.82439 1.03182 8.38073 1.44244C7.93707 1.85305 7.71524 2.34666 7.71524 2.92327C7.71524 3.49987 7.93707 3.99348 8.38073 4.4041C8.82439 4.81471 9.35773 5.02002 9.98075 5.02002C10.6038 5.02002 11.1371 4.81471 11.5808 4.4041C12.0244 3.99348 12.2463 3.49987 12.2463 2.92327C12.2463 2.34666 12.0244 1.85305 11.5808 1.44244C11.1371 1.03182 10.6038 0.826515 9.98075 0.826515ZM16.7773 0.826515C16.1543 0.826515 15.6209 1.03182 15.1773 1.44244C14.7336 1.85305 14.5118 2.34666 14.5118 2.92327C14.5118 3.49987 14.7336 3.99348 15.1773 4.4041C15.6209 4.81471 16.1543 5.02002 16.7773 5.02002C17.4003 5.02002 17.9336 4.81471 18.3773 4.4041C18.821 3.99348 19.0428 3.49987 19.0428 2.92327C19.0428 2.34666 18.821 1.85305 18.3773 1.44244C17.9336 1.03182 17.4003 0.826515 16.7773 0.826515Z" fill="white"/>
</svg>
