<svg width="61" height="59" viewBox="0 0 61 59" fill="none" xmlns="http://www.w3.org/2000/svg">
<path opacity="0.7" d="M7.4152 58.8766C5.6 58.8766 4.04607 58.2369 2.75342 56.9575C1.46078 55.6781 0.814453 54.1401 0.814453 52.3435V6.61172C0.814453 4.81512 1.46078 3.27711 2.75342 1.99771C4.04607 0.718313 5.6 0.0786133 7.4152 0.0786133H53.6205C55.4357 0.0786133 56.9896 0.718313 58.2822 1.99771C59.5749 3.27711 60.2212 4.81512 60.2212 6.61172V52.3435C60.2212 54.1401 59.5749 55.6781 58.2822 56.9575C56.9896 58.2369 55.4357 58.8766 53.6205 58.8766H7.4152ZM7.4152 52.3435H53.6205V6.61172H7.4152V52.3435ZM10.7156 45.8104H50.3201L37.9437 29.4776L28.0426 42.5438L20.6167 32.7442L10.7156 45.8104Z" fill="white"/>
</svg>
