<svg width="35" height="32" viewBox="0 0 35 32" fill="none" xmlns="http://www.w3.org/2000/svg">
<path d="M12.8715 31.5291L12.2034 26.5214C11.8415 26.391 11.5005 26.2345 11.1803 26.0519C10.8602 25.8693 10.547 25.6737 10.2408 25.4651L5.27159 27.4212L0.678223 19.9878L4.97928 16.9362C4.95145 16.7537 4.93753 16.5776 4.93753 16.4081V15.3518C4.93753 15.1822 4.95145 15.0062 4.97928 14.8236L0.678223 11.772L5.27159 4.33863L10.2408 6.29478C10.547 6.08612 10.8671 5.89051 11.2012 5.70793C11.5353 5.52536 11.8693 5.36887 12.2034 5.23846L12.8715 0.230713H22.0583L22.7264 5.23846C23.0883 5.36887 23.4293 5.52536 23.7495 5.70793C24.0696 5.89051 24.3828 6.08612 24.689 6.29478L29.6582 4.33863L34.2516 11.772L29.9505 14.8236C29.9783 15.0062 29.9923 15.1822 29.9923 15.3518V16.4081C29.9923 16.5776 29.9644 16.7537 29.9087 16.9362L34.2098 19.9878L29.6164 27.4212L24.689 25.4651C24.3828 25.6737 24.0626 25.8693 23.7286 26.0519C23.3945 26.2345 23.0604 26.391 22.7264 26.5214L22.0583 31.5291H12.8715ZM15.7946 28.3993H19.0934L19.6781 24.2522C20.5411 24.0436 21.3414 23.7371 22.0791 23.3329C22.8169 22.9286 23.4919 22.4395 24.1044 21.8657L28.2384 23.4698L29.867 20.8094L26.2758 18.2664C26.415 17.9013 26.5124 17.5166 26.5681 17.1123C26.6238 16.708 26.6516 16.2972 26.6516 15.8799C26.6516 15.4626 26.6238 15.0518 26.5681 14.6475C26.5124 14.2433 26.415 13.8586 26.2758 13.4934L29.867 10.9504L28.2384 8.29005L24.1044 9.93322C23.4919 9.33333 22.8169 8.83125 22.0791 8.42698C21.3414 8.02271 20.5411 7.71625 19.6781 7.50759L19.1352 3.36055H15.8363L15.2517 7.50759C14.3887 7.71625 13.5884 8.02271 12.8506 8.42698C12.1129 8.83125 11.4378 9.32029 10.8254 9.8941L6.69136 8.29005L5.0628 10.9504L8.65398 13.4543C8.51479 13.8455 8.41735 14.2368 8.36167 14.628C8.306 15.0192 8.27816 15.4365 8.27816 15.8799C8.27816 16.2972 8.306 16.7015 8.36167 17.0927C8.41735 17.484 8.51479 17.8752 8.65398 18.2664L5.0628 20.8094L6.69136 23.4698L10.8254 21.8266C11.4378 22.4265 12.1129 22.9286 12.8506 23.3329C13.5884 23.7371 14.3887 24.0436 15.2517 24.2522L15.7946 28.3993ZM17.5484 21.3571C19.163 21.3571 20.5411 20.8225 21.6824 19.7531C22.8238 18.6837 23.3945 17.3927 23.3945 15.8799C23.3945 14.3672 22.8238 13.0761 21.6824 12.0067C20.5411 10.9374 19.163 10.4027 17.5484 10.4027C15.9059 10.4027 14.521 10.9374 13.3935 12.0067C12.266 13.0761 11.7023 14.3672 11.7023 15.8799C11.7023 17.3927 12.266 18.6837 13.3935 19.7531C14.521 20.8225 15.9059 21.3571 17.5484 21.3571Z" fill="white"/>
</svg>
