<svg width="38" height="26" viewBox="0 0 38 26" fill="none" xmlns="http://www.w3.org/2000/svg">
<path d="M0.817871 25.1518V20.8456C0.817871 19.9741 1.06146 19.1731 1.54863 18.4426C2.03581 17.712 2.68306 17.1545 3.49038 16.7701C5.21637 15.9755 6.9702 15.3795 8.75187 14.9822C10.5335 14.5849 12.343 14.3863 14.1804 14.3863C16.0177 14.3863 17.8272 14.5849 19.6089 14.9822C21.3906 15.3795 23.1444 15.9755 24.8704 16.7701C25.6777 17.1545 26.325 17.712 26.8122 18.4426C27.2993 19.1731 27.5429 19.9741 27.5429 20.8456V25.1518H0.817871ZM30.8835 25.1518V20.538C30.8835 19.4102 30.5425 18.3272 29.8605 17.2891C29.1784 16.251 28.211 15.3603 26.9583 14.6169C28.3781 14.7707 29.7143 15.0335 30.9671 15.4051C32.2198 15.7768 33.389 16.2318 34.4747 16.7701C35.4769 17.2827 36.2425 17.853 36.7714 18.481C37.3003 19.109 37.5648 19.7947 37.5648 20.538V25.1518H30.8835ZM14.1804 12.8483C12.343 12.8483 10.7702 12.246 9.46175 11.0412C8.15334 9.83652 7.49913 8.38829 7.49913 6.69656C7.49913 5.00482 8.15334 3.5566 9.46175 2.35188C10.7702 1.14716 12.343 0.5448 14.1804 0.5448C16.0177 0.5448 17.5906 1.14716 18.899 2.35188C20.2074 3.5566 20.8617 5.00482 20.8617 6.69656C20.8617 8.38829 20.2074 9.83652 18.899 11.0412C17.5906 12.246 16.0177 12.8483 14.1804 12.8483ZM30.8835 6.69656C30.8835 8.38829 30.2293 9.83652 28.9209 11.0412C27.6125 12.246 26.0396 12.8483 24.2023 12.8483C23.8961 12.8483 23.5063 12.8163 23.0331 12.7522C22.5598 12.6881 22.1701 12.6176 21.8638 12.5407C22.6155 11.7205 23.1931 10.8105 23.5968 9.81088C24.0005 8.81122 24.2023 7.77311 24.2023 6.69656C24.2023 5.62 24.0005 4.58189 23.5968 3.58223C23.1931 2.58257 22.6155 1.67262 21.8638 0.852388C22.2536 0.724226 22.6433 0.640921 23.0331 0.602473C23.4228 0.564024 23.8125 0.5448 24.2023 0.5448C26.0396 0.5448 27.6125 1.14716 28.9209 2.35188C30.2293 3.5566 30.8835 5.00482 30.8835 6.69656ZM4.1585 22.076H24.2023V20.8456C24.2023 20.5636 24.1257 20.3073 23.9726 20.0766C23.8195 19.8459 23.6177 19.6665 23.3671 19.5384C21.8638 18.8463 20.3466 18.3272 18.8155 17.9812C17.2844 17.6352 15.7394 17.4621 14.1804 17.4621C12.6214 17.4621 11.0764 17.6352 9.54527 17.9812C8.01415 18.3272 6.49694 18.8463 4.99366 19.5384C4.74311 19.6665 4.54128 19.8459 4.38817 20.0766C4.23506 20.3073 4.1585 20.5636 4.1585 20.8456V22.076ZM14.1804 9.77244C15.0991 9.77244 15.8855 9.47126 16.5397 8.8689C17.1939 8.26654 17.521 7.54242 17.521 6.69656C17.521 5.85069 17.1939 5.12658 16.5397 4.52422C15.8855 3.92186 15.0991 3.62068 14.1804 3.62068C13.2617 3.62068 12.4753 3.92186 11.8211 4.52422C11.1669 5.12658 10.8398 5.85069 10.8398 6.69656C10.8398 7.54242 11.1669 8.26654 11.8211 8.8689C12.4753 9.47126 13.2617 9.77244 14.1804 9.77244Z" fill="white"/>
</svg>
