<svg width="27" height="27" viewBox="0 0 27 27" fill="none" xmlns="http://www.w3.org/2000/svg">
<path d="M20.5572 24.3357C20.7251 24.3357 20.872 24.2728 20.998 24.1468C21.124 24.0209 21.1869 23.8739 21.1869 23.706C21.1869 23.538 21.124 23.3911 20.998 23.2651C20.872 23.1392 20.7251 23.0762 20.5572 23.0762C20.3892 23.0762 20.2423 23.1392 20.1163 23.2651C19.9904 23.3911 19.9274 23.538 19.9274 23.706C19.9274 23.8739 19.9904 24.0209 20.1163 24.1468C20.2423 24.2728 20.3892 24.3357 20.5572 24.3357ZM19.9274 21.8167H21.1869V16.7786H19.9274V21.8167ZM2.92383 24.3357C2.23109 24.3357 1.63807 24.0891 1.14476 23.5958C0.651442 23.1025 0.404785 22.5094 0.404785 21.8167V7.96193C0.404785 7.26919 0.651442 6.67616 1.14476 6.18285C1.63807 5.68954 2.23109 5.44288 2.92383 5.44288H7.96193V2.92383C7.96193 2.23109 8.20858 1.63807 8.7019 1.14476C9.19521 0.651442 9.78824 0.404785 10.481 0.404785H15.5191C16.2118 0.404785 16.8048 0.651442 17.2981 1.14476C17.7915 1.63807 18.0381 2.23109 18.0381 2.92383V5.44288H23.0762C23.769 5.44288 24.362 5.68954 24.8553 6.18285C25.3486 6.67616 25.5953 7.26919 25.5953 7.96193V13.3464C25.2174 13.0735 24.8186 12.8373 24.3987 12.6379C23.9789 12.4385 23.538 12.2653 23.0762 12.1184V7.96193H2.92383V21.8167H11.835C11.8979 22.2575 11.9924 22.6879 12.1184 23.1077C12.2443 23.5275 12.4017 23.9369 12.5907 24.3357H2.92383ZM10.481 5.44288H15.5191V2.92383H10.481V5.44288ZM20.5572 26.8548C18.8148 26.8548 17.3296 26.2408 16.1016 25.0127C14.8736 23.7847 14.2595 22.2995 14.2595 20.5572C14.2595 18.8148 14.8736 17.3296 16.1016 16.1016C17.3296 14.8736 18.8148 14.2595 20.5572 14.2595C22.2995 14.2595 23.7847 14.8736 25.0127 16.1016C26.2408 17.3296 26.8548 18.8148 26.8548 20.5572C26.8548 22.2995 26.2408 23.7847 25.0127 25.0127C23.7847 26.2408 22.2995 26.8548 20.5572 26.8548Z" fill="white"/>
</svg>
